<?xml version="1.0" encoding="UTF-8"?>
<svg width="160" height="160" version="1.1" viewBox="0 0 160 160" xmlns="http://www.w3.org/2000/svg" xmlns:cc="http://creativecommons.org/ns#" xmlns:dc="http://purl.org/dc/elements/1.1/" xmlns:rdf="http://www.w3.org/1999/02/22-rdf-syntax-ns#">
 <metadata>
  <rdf:RDF>
   <cc:Work rdf:about="">
    <dc:format>image/svg+xml</dc:format>
    <dc:type rdf:resource="http://purl.org/dc/dcmitype/StillImage"/>
    <dc:title>logomark + wordmark</dc:title>
   </cc:Work>
  </rdf:RDF>
 </metadata>
 <!-- Generator: Sketch 3.3.1 (12005) - http://www.bohemiancoding.com/sketch -->
 <title>logomark + wordmark</title>
 <desc>Created with Sketch.</desc>
 <g transform="matrix(.87276 0 0 .87276 10.379 9.8085)" fill="none" fill-rule="evenodd">
  <g id="logomark-+-wordmark" transform="matrix(.92549 0 0 .92549 5.9829 6.5707)">
   <g id="logomark">
    <g id="status-bar" fill="#1bb91f">
     <path d="m0 116h160v28.996c0 8.2864-6.722 15.004-14.998 15.004h-130c-8.2834 0-14.998-6.7066-14.998-15.004zm0 0h160v30h-160z"/>
    </g>
    <path id="screen" d="m83 70v-70h-6v146h6v-70h77v-6zm-83-54.994c0-8.2879 6.722-15.006 14.998-15.006h130c8.2834 0 14.998 6.7249 14.998 15.006v130.99h-160z" fill="#3c3c3c"/>
   </g>
  </g>
 </g>
 <rect x="77.796" y="15.543" width="4.8464" height="117.93" fill="#fff"/>
 <rect x="82.642" y="72.084" width="62.195" height="4.8464" fill="#fff"/>
</svg>
